<?xml version="1.0" encoding="utf-8"?>
<svg version="1.0" width="512.000000pt" height="512.000000pt" viewBox="0 0 512.000000 512.000000" preserveAspectRatio="xMidYMid meet" xmlns="http://www.w3.org/2000/svg">
  <g transform="matrix(0.108289, 0, 0, -0.104693, -23.325684, 522.207886)" fill="#000000" stroke="none" style="">
    <path d="M 782 4469 C 736 4455 664 4381 651 4334 C 634 4274 636 841 652 786 C 668 733 733 668 786 652 C 846 634 4274 634 4334 652 C 4387 668 4452 733 4468 786 C 4486 846 4486 4274 4468 4334 C 4452 4387 4387 4452 4334 4468 C 4282 4483 835 4484 782 4469 Z M 3451.496 3879.692 L 3960.374 3480.12 L 2146.726 1216.497 L 1152.058 2216.941 L 1575.793 2687.492 L 2081.686 2153.222 L 3451.496 3879.692 Z" style="fill: rgb(0, 117, 255);"/>
  </g>
</svg>