<?xml version="1.0" encoding="utf-8"?>
<svg version="1.0" width="512.000000pt" height="512.000000pt" viewBox="0 0 512.000000 512.000000" preserveAspectRatio="xMidYMid meet" xmlns="http://www.w3.org/2000/svg">
  <g transform="matrix(0.092373, 0, 0, -0.090291, 16.097425, 487.379303)" fill="#000000" stroke="none" style="">
    <path d="M 352 4833 C 334 4824 309 4803 297 4786 L 275 4755 L 275 2560 L 275 365 L 297 334 C 347 265 154 270 2560 270 C 4966 270 4773 265 4823 334 L 4845 365 L 4845 2560 L 4845 4755 L 4823 4786 C 4773 4855 4966 4850 2558 4850 C 577 4850 382 4848 352 4833 Z M 4691.875 4695.698 L 4691.875 423.955 L 427.642 423.955 L 427.642 4695.698 L 4691.875 4695.698 Z"/>
  </g>
</svg>